<svg id="visual" viewBox="0 0 900 600" width="900" height="600" xmlns="http://www.w3.org/2000/svg" xmlns:xlink="http://www.w3.org/1999/xlink" version="1.1"><rect x="0" y="0" width="900" height="600" fill="#000000"></rect><defs><linearGradient id="grad1_0" x1="33.3%" y1="0%" x2="100%" y2="100%"><stop offset="20%" stop-color="#ff9505" stop-opacity="1"></stop><stop offset="80%" stop-color="#ff9505" stop-opacity="1"></stop></linearGradient></defs><defs><linearGradient id="grad1_1" x1="33.3%" y1="0%" x2="100%" y2="100%"><stop offset="20%" stop-color="#ff9505" stop-opacity="1"></stop><stop offset="80%" stop-color="#b35800" stop-opacity="1"></stop></linearGradient></defs><defs><linearGradient id="grad1_2" x1="33.3%" y1="0%" x2="100%" y2="100%"><stop offset="20%" stop-color="#6f1d00" stop-opacity="1"></stop><stop offset="80%" stop-color="#b35800" stop-opacity="1"></stop></linearGradient></defs><defs><linearGradient id="grad1_3" x1="33.3%" y1="0%" x2="100%" y2="100%"><stop offset="20%" stop-color="#6f1d00" stop-opacity="1"></stop><stop offset="80%" stop-color="#000000" stop-opacity="1"></stop></linearGradient></defs><defs><linearGradient id="grad2_0" x1="0%" y1="0%" x2="66.7%" y2="100%"><stop offset="20%" stop-color="#ff9505" stop-opacity="1"></stop><stop offset="80%" stop-color="#ff9505" stop-opacity="1"></stop></linearGradient></defs><defs><linearGradient id="grad2_1" x1="0%" y1="0%" x2="66.7%" y2="100%"><stop offset="20%" stop-color="#b35800" stop-opacity="1"></stop><stop offset="80%" stop-color="#ff9505" stop-opacity="1"></stop></linearGradient></defs><defs><linearGradient id="grad2_2" x1="0%" y1="0%" x2="66.7%" y2="100%"><stop offset="20%" stop-color="#b35800" stop-opacity="1"></stop><stop offset="80%" stop-color="#6f1d00" stop-opacity="1"></stop></linearGradient></defs><defs><linearGradient id="grad2_3" x1="0%" y1="0%" x2="66.7%" y2="100%"><stop offset="20%" stop-color="#000000" stop-opacity="1"></stop><stop offset="80%" stop-color="#6f1d00" stop-opacity="1"></stop></linearGradient></defs><g transform="translate(900, 0)"><path d="M0 324.5C-43.6 320.9 -87.3 317.4 -124.2 299.8C-161.1 282.2 -191.2 250.6 -219.2 219.2C-247.2 187.8 -272.9 156.7 -290.1 120.2C-307.3 83.7 -315.9 41.8 -324.5 0L0 0Z" fill="#520000"></path><path d="M0 243.4C-32.7 240.7 -65.5 238 -93.1 224.8C-120.8 211.7 -143.4 187.9 -164.4 164.4C-185.4 140.9 -204.7 117.5 -217.6 90.1C-230.5 62.8 -236.9 31.4 -243.4 0L0 0Z" fill="#903b00"></path><path d="M0 162.2C-21.8 160.5 -43.6 158.7 -62.1 149.9C-80.5 141.1 -95.6 125.3 -109.6 109.6C-123.6 93.9 -136.5 78.3 -145 60.1C-153.6 41.8 -157.9 20.9 -162.2 0L0 0Z" fill="#d97600"></path><path d="M0 81.1C-10.9 80.2 -21.8 79.3 -31 74.9C-40.3 70.6 -47.8 62.6 -54.8 54.8C-61.8 47 -68.2 39.2 -72.5 30C-76.8 20.9 -79 10.5 -81.1 0L0 0Z" fill="#ff9505"></path></g><g transform="translate(0, 600)"><path d="M0 -324.5C43.2 -321.5 86.4 -318.4 124.2 -299.8C162 -281.2 194.3 -246.9 210.7 -210.7C227.1 -174.5 227.6 -136.5 243.9 -101C260.2 -65.6 292.4 -32.8 324.5 0L0 0Z" fill="#520000"></path><path d="M0 -243.4C32.4 -241.1 64.8 -238.8 93.1 -224.8C121.5 -210.9 145.7 -185.2 158 -158C170.3 -130.9 170.7 -102.3 182.9 -75.8C195.2 -49.2 219.3 -24.6 243.4 0L0 0Z" fill="#903b00"></path><path d="M0 -162.2C21.6 -160.7 43.2 -159.2 62.1 -149.9C81 -140.6 97.2 -123.4 105.4 -105.4C113.6 -87.3 113.8 -68.2 122 -50.5C130.1 -32.8 146.2 -16.4 162.2 0L0 0Z" fill="#d97600"></path><path d="M0 -81.1C10.8 -80.4 21.6 -79.6 31 -74.9C40.5 -70.3 48.6 -61.7 52.7 -52.7C56.8 -43.6 56.9 -34.1 61 -25.3C65.1 -16.4 73.1 -8.2 81.1 0L0 0Z" fill="#ff9505"></path></g></svg>