<svg id="visual" viewBox="0 0 900 600" width="900" height="600" xmlns="http://www.w3.org/2000/svg" xmlns:xlink="http://www.w3.org/1999/xlink" version="1.1"><g stroke-width="1" stroke-linejoin="bevel"><path d="M466 276L464 178L431 267Z" fill="#cb4032" stroke="#cb4032"></path><path d="M464 178L392 194L431 267Z" fill="#a83f32" stroke="#a83f32"></path><path d="M464 178L426 94L392 194Z" fill="#753b32" stroke="#753b32"></path><path d="M466 276L593 172L464 178Z" fill="#303030" stroke="#303030"></path><path d="M464 178L493 83L426 94Z" fill="#753b32" stroke="#753b32"></path><path d="M593 172L493 83L464 178Z" fill="#dd3f31" stroke="#dd3f31"></path><path d="M281 263L423 375L431 267Z" fill="#303030" stroke="#303030"></path><path d="M431 267L423 375L466 276Z" fill="#643931" stroke="#643931"></path><path d="M466 276L623 332L593 172Z" fill="#a83f32" stroke="#a83f32"></path><path d="M423 375L471 401L466 276Z" fill="#cb4032" stroke="#cb4032"></path><path d="M593 172L600 123L493 83Z" fill="#dd3f31" stroke="#dd3f31"></path><path d="M263 218L281 263L392 194Z" fill="#973e32" stroke="#973e32"></path><path d="M392 194L281 263L431 267Z" fill="#753b32" stroke="#753b32"></path><path d="M471 401L623 332L466 276Z" fill="#a83f32" stroke="#a83f32"></path><path d="M593 172L701 166L600 123Z" fill="#643931" stroke="#643931"></path><path d="M270 88L263 218L392 194Z" fill="#dd3f31" stroke="#dd3f31"></path><path d="M616 0L501 0L493 83Z" fill="#423331" stroke="#423331"></path><path d="M493 83L501 0L426 94Z" fill="#ba4032" stroke="#ba4032"></path><path d="M426 94L270 88L392 194Z" fill="#a83f32" stroke="#a83f32"></path><path d="M338 0L270 88L426 94Z" fill="#dd3f31" stroke="#dd3f31"></path><path d="M501 0L383 0L426 94Z" fill="#973e32" stroke="#973e32"></path><path d="M719 281L701 166L593 172Z" fill="#753b32" stroke="#753b32"></path><path d="M600 123L616 0L493 83Z" fill="#973e32" stroke="#973e32"></path><path d="M226 127L210 220L263 218Z" fill="#303030" stroke="#303030"></path><path d="M263 218L210 220L281 263Z" fill="#a83f32" stroke="#a83f32"></path><path d="M416 522L471 401L423 375Z" fill="#973e32" stroke="#973e32"></path><path d="M416 522L494 476L471 401Z" fill="#303030" stroke="#303030"></path><path d="M471 401L602 438L623 332Z" fill="#753b32" stroke="#753b32"></path><path d="M261 434L423 375L281 263Z" fill="#423331" stroke="#423331"></path><path d="M571 460L602 438L471 401Z" fill="#303030" stroke="#303030"></path><path d="M623 332L719 281L593 172Z" fill="#423331" stroke="#423331"></path><path d="M270 88L226 127L263 218Z" fill="#753b32" stroke="#753b32"></path><path d="M383 0L338 0L426 94Z" fill="#303030" stroke="#303030"></path><path d="M161 0L134 83L226 127Z" fill="#cb4032" stroke="#cb4032"></path><path d="M494 476L571 460L471 401Z" fill="#a83f32" stroke="#a83f32"></path><path d="M602 438L675 377L623 332Z" fill="#863d32" stroke="#863d32"></path><path d="M675 377L719 281L623 332Z" fill="#863d32" stroke="#863d32"></path><path d="M133 196L192 279L210 220Z" fill="#ba4032" stroke="#ba4032"></path><path d="M210 220L192 279L281 263Z" fill="#cb4032" stroke="#cb4032"></path><path d="M670 0L616 0L600 123Z" fill="#533631" stroke="#533631"></path><path d="M192 279L261 434L281 263Z" fill="#973e32" stroke="#973e32"></path><path d="M302 518L416 522L423 375Z" fill="#533631" stroke="#533631"></path><path d="M566 600L665 525L571 460Z" fill="#753b32" stroke="#753b32"></path><path d="M732 61L670 0L600 123Z" fill="#a83f32" stroke="#a83f32"></path><path d="M701 166L732 61L600 123Z" fill="#643931" stroke="#643931"></path><path d="M824 114L732 61L701 166Z" fill="#423331" stroke="#423331"></path><path d="M192 279L207 435L261 434Z" fill="#533631" stroke="#533631"></path><path d="M261 434L302 518L423 375Z" fill="#ba4032" stroke="#ba4032"></path><path d="M134 83L133 196L226 127Z" fill="#863d32" stroke="#863d32"></path><path d="M226 127L133 196L210 220Z" fill="#863d32" stroke="#863d32"></path><path d="M192 279L87 381L207 435Z" fill="#423331" stroke="#423331"></path><path d="M176 523L302 518L261 434Z" fill="#cb4032" stroke="#cb4032"></path><path d="M830 295L797 198L719 281Z" fill="#cb4032" stroke="#cb4032"></path><path d="M719 281L797 198L701 166Z" fill="#863d32" stroke="#863d32"></path><path d="M161 0L226 127L270 88Z" fill="#643931" stroke="#643931"></path><path d="M602 438L665 525L675 377Z" fill="#973e32" stroke="#973e32"></path><path d="M675 377L772 423L719 281Z" fill="#973e32" stroke="#973e32"></path><path d="M571 460L665 525L602 438Z" fill="#423331" stroke="#423331"></path><path d="M566 600L571 460L494 476Z" fill="#973e32" stroke="#973e32"></path><path d="M665 525L772 423L675 377Z" fill="#dd3f31" stroke="#dd3f31"></path><path d="M398 600L480 600L416 522Z" fill="#973e32" stroke="#973e32"></path><path d="M416 522L480 600L494 476Z" fill="#973e32" stroke="#973e32"></path><path d="M338 0L161 0L270 88Z" fill="#973e32" stroke="#973e32"></path><path d="M772 423L830 295L719 281Z" fill="#643931" stroke="#643931"></path><path d="M302 518L398 600L416 522Z" fill="#303030" stroke="#303030"></path><path d="M797 198L824 114L701 166Z" fill="#a83f32" stroke="#a83f32"></path><path d="M732 61L784 0L670 0Z" fill="#dd3f31" stroke="#dd3f31"></path><path d="M900 180L824 114L797 198Z" fill="#753b32" stroke="#753b32"></path><path d="M480 600L566 600L494 476Z" fill="#ba4032" stroke="#ba4032"></path><path d="M0 195L81 312L133 196Z" fill="#863d32" stroke="#863d32"></path><path d="M133 196L81 312L192 279Z" fill="#753b32" stroke="#753b32"></path><path d="M824 114L784 0L732 61Z" fill="#753b32" stroke="#753b32"></path><path d="M81 312L87 381L192 279Z" fill="#a83f32" stroke="#a83f32"></path><path d="M181 600L305 600L302 518Z" fill="#973e32" stroke="#973e32"></path><path d="M302 518L305 600L398 600Z" fill="#643931" stroke="#643931"></path><path d="M176 523L261 434L207 435Z" fill="#533631" stroke="#533631"></path><path d="M87 381L176 523L207 435Z" fill="#dd3f31" stroke="#dd3f31"></path><path d="M665 525L790 531L772 423Z" fill="#ba4032" stroke="#ba4032"></path><path d="M566 600L674 600L665 525Z" fill="#973e32" stroke="#973e32"></path><path d="M900 334L900 180L830 295Z" fill="#753b32" stroke="#753b32"></path><path d="M830 295L900 180L797 198Z" fill="#533631" stroke="#533631"></path><path d="M824 114L900 0L784 0Z" fill="#533631" stroke="#533631"></path><path d="M161 0L79 0L134 83Z" fill="#303030" stroke="#303030"></path><path d="M0 112L0 195L133 196Z" fill="#dd3f31" stroke="#dd3f31"></path><path d="M674 600L790 531L665 525Z" fill="#533631" stroke="#533631"></path><path d="M900 412L900 334L830 295Z" fill="#863d32" stroke="#863d32"></path><path d="M900 412L830 295L772 423Z" fill="#753b32" stroke="#753b32"></path><path d="M900 180L900 113L824 114Z" fill="#cb4032" stroke="#cb4032"></path><path d="M0 112L133 196L134 83Z" fill="#423331" stroke="#423331"></path><path d="M81 312L0 383L87 381Z" fill="#dd3f31" stroke="#dd3f31"></path><path d="M95 538L181 600L176 523Z" fill="#643931" stroke="#643931"></path><path d="M176 523L181 600L302 518Z" fill="#643931" stroke="#643931"></path><path d="M95 538L176 523L87 381Z" fill="#cb4032" stroke="#cb4032"></path><path d="M0 195L0 301L81 312Z" fill="#863d32" stroke="#863d32"></path><path d="M79 0L0 112L134 83Z" fill="#ba4032" stroke="#ba4032"></path><path d="M900 506L900 412L772 423Z" fill="#863d32" stroke="#863d32"></path><path d="M0 464L95 538L87 381Z" fill="#863d32" stroke="#863d32"></path><path d="M0 301L0 383L81 312Z" fill="#303030" stroke="#303030"></path><path d="M900 113L900 0L824 114Z" fill="#973e32" stroke="#973e32"></path><path d="M79 0L0 0L0 112Z" fill="#a83f32" stroke="#a83f32"></path><path d="M0 383L0 464L87 381Z" fill="#303030" stroke="#303030"></path><path d="M674 600L822 600L790 531Z" fill="#cb4032" stroke="#cb4032"></path><path d="M790 531L900 506L772 423Z" fill="#533631" stroke="#533631"></path><path d="M822 600L900 506L790 531Z" fill="#423331" stroke="#423331"></path><path d="M0 600L71 600L95 538Z" fill="#863d32" stroke="#863d32"></path><path d="M95 538L71 600L181 600Z" fill="#dd3f31" stroke="#dd3f31"></path><path d="M822 600L900 600L900 506Z" fill="#533631" stroke="#533631"></path><path d="M0 464L0 600L95 538Z" fill="#643931" stroke="#643931"></path></g></svg>