<svg id="visual" viewBox="0 0 1000 100" width="1000" height="100" xmlns="http://www.w3.org/2000/svg" xmlns:xlink="http://www.w3.org/1999/xlink" version="1.1"><path d="M0 71L23.8 70.7C47.7 70.3 95.3 69.7 143 69.8C190.7 70 238.3 71 286 69.2C333.7 67.3 381.3 62.7 428.8 61C476.3 59.3 523.7 60.7 571.2 61.8C618.7 63 666.3 64 714 64.3C761.7 64.7 809.3 64.3 857 63.8C904.7 63.3 952.3 62.7 976.2 62.3L1000 62L1000 101L976.2 101C952.3 101 904.7 101 857 101C809.3 101 761.7 101 714 101C666.3 101 618.7 101 571.2 101C523.7 101 476.3 101 428.8 101C381.3 101 333.7 101 286 101C238.3 101 190.7 101 143 101C95.3 101 47.7 101 23.8 101L0 101Z" fill="#0f0f10"></path><path d="M0 75L23.8 74.3C47.7 73.7 95.3 72.3 143 70.7C190.7 69 238.3 67 286 68.3C333.7 69.7 381.3 74.3 428.8 76C476.3 77.7 523.7 76.3 571.2 76C618.7 75.7 666.3 76.3 714 76.3C761.7 76.3 809.3 75.7 857 74.3C904.7 73 952.3 71 976.2 70L1000 69L1000 101L976.2 101C952.3 101 904.7 101 857 101C809.3 101 761.7 101 714 101C666.3 101 618.7 101 571.2 101C523.7 101 476.3 101 428.8 101C381.3 101 333.7 101 286 101C238.3 101 190.7 101 143 101C95.3 101 47.7 101 23.8 101L0 101Z" fill="#242424"></path><path d="M0 81L23.8 79.7C47.7 78.3 95.3 75.7 143 75.5C190.7 75.3 238.3 77.7 286 79C333.7 80.3 381.3 80.7 428.8 80.2C476.3 79.7 523.7 78.3 571.2 77.2C618.7 76 666.3 75 714 75.5C761.7 76 809.3 78 857 78.3C904.7 78.7 952.3 77.3 976.2 76.7L1000 76L1000 101L976.2 101C952.3 101 904.7 101 857 101C809.3 101 761.7 101 714 101C666.3 101 618.7 101 571.2 101C523.7 101 476.3 101 428.8 101C381.3 101 333.7 101 286 101C238.3 101 190.7 101 143 101C95.3 101 47.7 101 23.8 101L0 101Z" fill="#303030"></path><path d="M0 83L23.8 82.7C47.7 82.3 95.3 81.7 143 81.2C190.7 80.7 238.3 80.3 286 81.5C333.7 82.7 381.3 85.3 428.8 86.2C476.3 87 523.7 86 571.2 85.7C618.7 85.3 666.3 85.7 714 84.7C761.7 83.7 809.3 81.3 857 81.2C904.7 81 952.3 83 976.2 84L1000 85L1000 101L976.2 101C952.3 101 904.7 101 857 101C809.3 101 761.7 101 714 101C666.3 101 618.7 101 571.2 101C523.7 101 476.3 101 428.8 101C381.3 101 333.7 101 286 101C238.3 101 190.7 101 143 101C95.3 101 47.7 101 23.8 101L0 101Z" fill="#242424"></path><path d="M0 94L23.8 93C47.7 92 95.3 90 143 89.2C190.7 88.3 238.3 88.7 286 88.7C333.7 88.7 381.3 88.3 428.8 88.5C476.3 88.7 523.7 89.3 571.2 90.3C618.7 91.3 666.3 92.7 714 92.5C761.7 92.3 809.3 90.7 857 89.5C904.7 88.3 952.3 87.7 976.2 87.3L1000 87L1000 101L976.2 101C952.3 101 904.7 101 857 101C809.3 101 761.7 101 714 101C666.3 101 618.7 101 571.2 101C523.7 101 476.3 101 428.8 101C381.3 101 333.7 101 286 101C238.3 101 190.7 101 143 101C95.3 101 47.7 101 23.8 101L0 101Z" fill="#0f0f10"></path></svg>