<svg id="visual" viewBox="0 0 1000 100" width="1000" height="100" xmlns="http://www.w3.org/2000/svg" xmlns:xlink="http://www.w3.org/1999/xlink" version="1.1">
<path d="M0 55L16.7 53.7C33.3 52.3 66.7 49.7 100 48.7C133.3 47.7 166.7 48.3 200 48C233.3 47.7 266.7 46.3 300 45C333.3 43.7 366.7 42.3 400 41.7C433.3 41 466.7 41 500 42.5C533.3 44 566.7 47 600 49.8C633.3 52.7 666.7 55.3 700 53.8C733.3 52.3 766.7 46.7 800 45C833.3 43.3 866.7 45.7 900 48.3C933.3 51 966.7 54 983.3 55.5L1000 57L1000 0L983.3 0C966.7 0 933.3 0 900 0C866.7 0 833.3 0 800 0C766.7 0 733.3 0 700 0C666.7 0 633.3 0 600 0C566.7 0 533.3 0 500 0C466.7 0 433.3 0 400 0C366.7 0 333.3 0 300 0C266.7 0 233.3 0 200 0C166.7 0 133.3 0 100 0C66.7 0 33.3 0 16.7 0L0 0Z" fill="#ff8658">
</path>
<path d="M0 30L16.7 31.5C33.3 33 66.7 36 100 37.3C133.3 38.7 166.7 38.3 200 38.2C233.3 38 266.7 38 300 36.3C333.3 34.7 366.7 31.3 400 31.5C433.3 31.7 466.7 35.3 500 37.3C533.3 39.3 566.7 39.7 600 38.8C633.3 38 666.7 36 700 33.8C733.3 31.7 766.7 29.3 800 30.5C833.3 31.7 866.7 36.3 900 38C933.3 39.7 966.7 38.3 983.3 37.7L1000 37L1000 0L983.3 0C966.7 0 933.3 0 900 0C866.7 0 833.3 0 800 0C766.7 0 733.3 0 700 0C666.7 0 633.3 0 600 0C566.7 0 533.3 0 500 0C466.7 0 433.3 0 400 0C366.7 0 333.3 0 300 0C266.7 0 233.3 0 200 0C166.7 0 133.3 0 100 0C66.7 0 33.3 0 16.7 0L0 0Z" fill="#ff4600"></path><path d="M0 21L16.7 20C33.3 19 66.7 17 100 16.8C133.3 16.7 166.7 18.3 200 19.7C233.3 21 266.7 22 300 22.7C333.3 23.3 366.7 23.7 400 22.3C433.3 21 466.7 18 500 17.3C533.3 16.7 566.7 18.3 600 19.3C633.3 20.3 666.7 20.7 700 20.3C733.3 20 766.7 19 800 18.5C833.3 18 866.7 18 900 18.7C933.3 19.3 966.7 20.7 983.3 21.3L1000 22L1000 0L983.3 0C966.7 0 933.3 0 900 0C866.7 0 833.3 0 800 0C766.7 0 733.3 0 700 0C666.7 0 633.3 0 600 0C566.7 0 533.3 0 500 0C466.7 0 433.3 0 400 0C366.7 0 333.3 0 300 0C266.7 0 233.3 0 200 0C166.7 0 133.3 0 100 0C66.7 0 33.3 0 16.7 0L0 0Z" fill="#bb3309">
</path>
</svg>