<svg id="visual" viewBox="0 0 1000 100" width="1000" height="100" xmlns="http://www.w3.org/2000/svg" xmlns:xlink="http://www.w3.org/1999/xlink" version="1.1"><path d="M0 43L16.7 44.3C33.3 45.7 66.7 48.3 100 49.3C133.3 50.3 166.7 49.7 200 50C233.3 50.3 266.7 51.7 300 53C333.3 54.3 366.7 55.7 400 56.3C433.3 57 466.7 57 500 55.5C533.3 54 566.7 51 600 48.2C633.3 45.3 666.7 42.7 700 44.2C733.3 45.7 766.7 51.3 800 53C833.3 54.7 866.7 52.3 900 49.7C933.3 47 966.7 44 983.3 42.5L1000 41L1000 101L983.3 101C966.7 101 933.3 101 900 101C866.7 101 833.3 101 800 101C766.7 101 733.3 101 700 101C666.7 101 633.3 101 600 101C566.7 101 533.3 101 500 101C466.7 101 433.3 101 400 101C366.7 101 333.3 101 300 101C266.7 101 233.3 101 200 101C166.7 101 133.3 101 100 101C66.7 101 33.3 101 16.7 101L0 101Z" fill="#bb3309"></path><path d="M0 68L16.7 66.5C33.3 65 66.7 62 100 60.7C133.3 59.3 166.7 59.7 200 59.8C233.3 60 266.7 60 300 61.7C333.3 63.3 366.7 66.7 400 66.5C433.3 66.3 466.7 62.7 500 60.7C533.3 58.7 566.7 58.3 600 59.2C633.3 60 666.7 62 700 64.2C733.3 66.3 766.7 68.7 800 67.5C833.3 66.3 866.7 61.7 900 60C933.3 58.3 966.7 59.7 983.3 60.3L1000 61L1000 101L983.3 101C966.7 101 933.3 101 900 101C866.7 101 833.3 101 800 101C766.7 101 733.3 101 700 101C666.7 101 633.3 101 600 101C566.7 101 533.3 101 500 101C466.7 101 433.3 101 400 101C366.7 101 333.3 101 300 101C266.7 101 233.3 101 200 101C166.7 101 133.3 101 100 101C66.7 101 33.3 101 16.7 101L0 101Z" fill="#ff4600"></path><path d="M0 77L16.7 78C33.3 79 66.7 81 100 81.2C133.3 81.3 166.7 79.7 200 78.3C233.3 77 266.7 76 300 75.3C333.3 74.7 366.7 74.3 400 75.7C433.3 77 466.7 80 500 80.7C533.3 81.3 566.7 79.7 600 78.7C633.3 77.7 666.7 77.3 700 77.7C733.3 78 766.7 79 800 79.5C833.3 80 866.7 80 900 79.3C933.3 78.7 966.7 77.3 983.3 76.7L1000 76L1000 101L983.3 101C966.7 101 933.3 101 900 101C866.7 101 833.3 101 800 101C766.7 101 733.3 101 700 101C666.7 101 633.3 101 600 101C566.7 101 533.3 101 500 101C466.7 101 433.3 101 400 101C366.7 101 333.3 101 300 101C266.7 101 233.3 101 200 101C166.7 101 133.3 101 100 101C66.7 101 33.3 101 16.7 101L0 101Z" fill="#ff8658"></path></svg>